{
	"nodes":[{
		"name":"Camera",
		"translation":[-15.835310935974121,
		34.40323257446289,
		323.93414306640627],
		"camera":0,
		"rotation":[0.04335224628448486,
		-0.00016311820945702493,
		-0.000007078195721987868,
		-0.9990598559379578],
		"scale":[1.0,
		1.0,
		1.0]
	},
	{
		"name":"Polygon",
		"translation":[0.0,
		-17.378955841064454,
		0.0],
		"rotation":[0.0,
		0.0,
		0.0,
		-1.0],
		"scale":[1.0,
		1.0,
		1.0],
		"mesh":0
	}],
	"asset":{
		"version":"2.0",
		"generator":"Created using the official Cinema 4D glTF Exporter 1.000x284978"
	},
	"scenes":[{
		"nodes":[0,
		1]
	}],
	"meshes":[{
		"name":"Polygon",
		"primitives":[{
			"attributes":{
				"POSITION":1,
				"NORMAL":2,
				"TEXCOORD_0":3
			},
			"indices":0,
			"material":0
		}]
	}],
	"cameras":[{
		"type":"perspective",
		"perspective":{
			"znear":0.009999999776482582,
			"zfar":10000000000.0,
			"aspectRatio":1.0,
			"yfov":0.9272952079772949
		}
	}],
	"accessors":[{
		"bufferView":0,
		"type":"SCALAR",
		"componentType":5123,
		"count":372960,
		"byteOffset":0,
		"max":[62163],
		"min":[0]
	},
	{
		"bufferView":1,
		"type":"VEC3",
		"componentType":5126,
		"count":62164,
		"byteOffset":0,
		"max":[91.56271362304688,
		72.8712387084961,
		50.233768463134769],
		"min":[-104.23084259033203,
		-60.66984939575195,
		-50.233760833740237]
	},
	{
		"bufferView":1,
		"type":"VEC3",
		"componentType":5126,
		"count":62164,
		"byteOffset":12,
		"max":[0.9999796152114868,
		1.0,
		0.9999961853027344],
		"min":[-0.9999801516532898,
		-1.0,
		-0.9999961256980896]
	},
	{
		"bufferView":1,
		"type":"VEC2",
		"componentType":5126,
		"count":62164,
		"byteOffset":24,
		"max":[0.9999312162399292,
		0.9886386394500732],
		"min":[0.00006878045678604394,
		0.011499321088194847]
	}],
	"buffers":[{
		"uri":"data:application/octet-stream;base64,",
		"byteLength":2735168
	}],
	"bufferViews":[{
		"buffer":0,
		"byteOffset":0,
		"byteLength":745920,
		"target":34963
	},
	{
		"buffer":0,
		"byteOffset":745920,
		"byteLength":1989248,
		"target":34962,
		"byteStride":32
	}],
	"materials":[{
		"pbrMetallicRoughness":{
			"baseColorFactor":[1.0,
			1.0,
			1.0,
			1.0],
			"metallicFactor":1.0,
			"roughnessFactor":1.0
		},
		"emissiveFactor":[0.0,
		0.0,
		0.0],
		"alphaMode":"OPAQUE",
		"doubleSided":true,
		"name":""
	}]
}